<mxfile host="app.diagrams.net" modified="2020-07-21T02:49:58.869Z" agent="5.0 (Windows NT 10.0; Win64; x64) AppleWebKit/537.36 (KHTML, like Gecko) Chrome/83.0.4103.116 Safari/537.36" etag="_dsh3mcl1rMFKNMJ6MjV" version="13.4.8" type="github">
  <diagram id="prtHgNgQTEPvFCAcTncT" name="Page-1">
    <mxGraphModel dx="1422" dy="1965" grid="1" gridSize="10" guides="1" tooltips="1" connect="1" arrows="1" fold="1" page="1" pageScale="1" pageWidth="827" pageHeight="1169" math="0" shadow="0">
      <root>
        <mxCell id="0" />
        <mxCell id="1" parent="0" />
        <mxCell id="Z1oygH8IsLdkIF9Oyi9L-364" style="edgeStyle=orthogonalEdgeStyle;rounded=0;orthogonalLoop=1;jettySize=auto;html=1;entryX=0.5;entryY=0;entryDx=0;entryDy=0;" parent="1" edge="1">
          <mxGeometry relative="1" as="geometry">
            <mxPoint x="490" y="-1010" as="targetPoint" />
            <mxPoint x="480" y="-1070" as="sourcePoint" />
            <Array as="points">
              <mxPoint x="490" y="-1070" />
            </Array>
          </mxGeometry>
        </mxCell>
        <mxCell id="Z1oygH8IsLdkIF9Oyi9L-149" value="Incident Response Process" style="swimlane;html=1;childLayout=stackLayout;resizeParent=1;resizeParentMax=0;horizontal=0;startSize=20;horizontalStack=0;fillColor=#f5f5f5;fontColor=#333333;strokeWidth=2;" parent="1" vertex="1">
          <mxGeometry x="40" y="-1150" width="920" height="1490" as="geometry" />
        </mxCell>
        <mxCell id="Z1oygH8IsLdkIF9Oyi9L-150" value="Preparation" style="swimlane;html=1;startSize=20;horizontal=0;fillColor=#dae8fc;" parent="Z1oygH8IsLdkIF9Oyi9L-149" vertex="1">
          <mxGeometry x="20" width="900" height="250" as="geometry" />
        </mxCell>
        <mxCell id="Z1oygH8IsLdkIF9Oyi9L-362" value="" style="edgeStyle=orthogonalEdgeStyle;rounded=0;orthogonalLoop=1;jettySize=auto;html=1;" parent="Z1oygH8IsLdkIF9Oyi9L-150" edge="1">
          <mxGeometry relative="1" as="geometry">
            <mxPoint x="100" y="110" as="sourcePoint" />
            <mxPoint x="100" y="140" as="targetPoint" />
          </mxGeometry>
        </mxCell>
        <mxCell id="Z1oygH8IsLdkIF9Oyi9L-366" value="Incident response plan development" style="rounded=1;whiteSpace=wrap;html=1;strokeColor=#000000;" parent="Z1oygH8IsLdkIF9Oyi9L-150" vertex="1">
          <mxGeometry x="40" y="50" width="120" height="60" as="geometry" />
        </mxCell>
        <mxCell id="Z1oygH8IsLdkIF9Oyi9L-368" value="Implement mechanisms to detect attacks/incidents&amp;nbsp;" style="rounded=1;whiteSpace=wrap;html=1;strokeColor=#000000;" parent="Z1oygH8IsLdkIF9Oyi9L-150" vertex="1">
          <mxGeometry x="390" y="140" width="120" height="60" as="geometry" />
        </mxCell>
        <mxCell id="Z1oygH8IsLdkIF9Oyi9L-369" value="Implement protection mechanism in place to prevent incidents" style="rounded=1;whiteSpace=wrap;html=1;strokeColor=#000000;" parent="Z1oygH8IsLdkIF9Oyi9L-150" vertex="1">
          <mxGeometry x="220" y="140" width="120" height="60" as="geometry" />
        </mxCell>
        <mxCell id="Z1oygH8IsLdkIF9Oyi9L-365" value="&lt;span&gt;Incident response plan training&lt;/span&gt;" style="rounded=1;whiteSpace=wrap;html=1;strokeColor=#000000;" parent="Z1oygH8IsLdkIF9Oyi9L-150" vertex="1">
          <mxGeometry x="40" y="140" width="120" height="60" as="geometry" />
        </mxCell>
        <mxCell id="Z1oygH8IsLdkIF9Oyi9L-363" style="edgeStyle=orthogonalEdgeStyle;rounded=0;orthogonalLoop=1;jettySize=auto;html=1;entryX=0.5;entryY=0;entryDx=0;entryDy=0;" parent="Z1oygH8IsLdkIF9Oyi9L-150" target="Z1oygH8IsLdkIF9Oyi9L-369" edge="1">
          <mxGeometry relative="1" as="geometry">
            <mxPoint x="274" y="140" as="targetPoint" />
            <mxPoint x="274" y="80" as="sourcePoint" />
            <Array as="points">
              <mxPoint x="280" y="80" />
            </Array>
          </mxGeometry>
        </mxCell>
        <mxCell id="Z1oygH8IsLdkIF9Oyi9L-326" value="Identification" style="swimlane;html=1;startSize=20;horizontal=0;fillColor=#d5e8d4;" parent="Z1oygH8IsLdkIF9Oyi9L-149" vertex="1">
          <mxGeometry x="20" y="250" width="900" height="380" as="geometry" />
        </mxCell>
        <mxCell id="Z1oygH8IsLdkIF9Oyi9L-327" value="" style="edgeStyle=orthogonalEdgeStyle;rounded=0;orthogonalLoop=1;jettySize=auto;html=1;" parent="Z1oygH8IsLdkIF9Oyi9L-326" source="Z1oygH8IsLdkIF9Oyi9L-338" edge="1">
          <mxGeometry relative="1" as="geometry">
            <mxPoint x="100" y="100" as="targetPoint" />
          </mxGeometry>
        </mxCell>
        <mxCell id="Z1oygH8IsLdkIF9Oyi9L-328" value="" style="edgeStyle=orthogonalEdgeStyle;rounded=0;orthogonalLoop=1;jettySize=auto;html=1;exitX=1;exitY=0.5;exitDx=0;exitDy=0;" parent="Z1oygH8IsLdkIF9Oyi9L-326" target="Z1oygH8IsLdkIF9Oyi9L-337" edge="1" source="Z1oygH8IsLdkIF9Oyi9L-329">
          <mxGeometry relative="1" as="geometry">
            <mxPoint x="100" y="160" as="sourcePoint" />
            <Array as="points">
              <mxPoint x="160" y="120" />
            </Array>
          </mxGeometry>
        </mxCell>
        <mxCell id="Z1oygH8IsLdkIF9Oyi9L-330" value="Yes" style="edgeStyle=orthogonalEdgeStyle;rounded=0;orthogonalLoop=1;jettySize=auto;html=1;" parent="Z1oygH8IsLdkIF9Oyi9L-326" source="Z1oygH8IsLdkIF9Oyi9L-337" target="Z1oygH8IsLdkIF9Oyi9L-340" edge="1">
          <mxGeometry x="0.2" relative="1" as="geometry">
            <mxPoint as="offset" />
          </mxGeometry>
        </mxCell>
        <mxCell id="Z1oygH8IsLdkIF9Oyi9L-331" value="" style="edgeStyle=orthogonalEdgeStyle;rounded=0;orthogonalLoop=1;jettySize=auto;html=1;" parent="Z1oygH8IsLdkIF9Oyi9L-326" source="Z1oygH8IsLdkIF9Oyi9L-335" target="Z1oygH8IsLdkIF9Oyi9L-334" edge="1">
          <mxGeometry relative="1" as="geometry" />
        </mxCell>
        <mxCell id="Z1oygH8IsLdkIF9Oyi9L-332" value="" style="edgeStyle=orthogonalEdgeStyle;rounded=0;orthogonalLoop=1;jettySize=auto;html=1;" parent="Z1oygH8IsLdkIF9Oyi9L-326" source="Z1oygH8IsLdkIF9Oyi9L-334" target="Z1oygH8IsLdkIF9Oyi9L-343" edge="1">
          <mxGeometry relative="1" as="geometry" />
        </mxCell>
        <mxCell id="B6vYDSZyCx0211ZV-uHV-12" style="edgeStyle=orthogonalEdgeStyle;rounded=0;orthogonalLoop=1;jettySize=auto;html=1;" edge="1" parent="Z1oygH8IsLdkIF9Oyi9L-326" source="Z1oygH8IsLdkIF9Oyi9L-333" target="Z1oygH8IsLdkIF9Oyi9L-345">
          <mxGeometry relative="1" as="geometry">
            <Array as="points">
              <mxPoint x="770" y="100" />
            </Array>
          </mxGeometry>
        </mxCell>
        <mxCell id="Z1oygH8IsLdkIF9Oyi9L-333" value="Contact Escalation Points" style="rounded=0;whiteSpace=wrap;html=1;" parent="Z1oygH8IsLdkIF9Oyi9L-326" vertex="1">
          <mxGeometry x="600" y="70" width="120" height="60" as="geometry" />
        </mxCell>
        <mxCell id="Z1oygH8IsLdkIF9Oyi9L-337" value="Incident" style="rhombus;whiteSpace=wrap;html=1;" parent="Z1oygH8IsLdkIF9Oyi9L-326" vertex="1">
          <mxGeometry x="210" y="80" width="80" height="80" as="geometry" />
        </mxCell>
        <mxCell id="B6vYDSZyCx0211ZV-uHV-35" value="&lt;span&gt;Handle as BAU activity&lt;/span&gt;" style="rounded=1;whiteSpace=wrap;html=1;strokeColor=#82b366;strokeWidth=1;fillColor=#d5e8d4;" vertex="1" parent="Z1oygH8IsLdkIF9Oyi9L-326">
          <mxGeometry x="340" y="90" width="120" height="60" as="geometry" />
        </mxCell>
        <mxCell id="Z1oygH8IsLdkIF9Oyi9L-329" value="&lt;span&gt;Triage Events&lt;/span&gt;" style="rounded=0;whiteSpace=wrap;html=1;" parent="Z1oygH8IsLdkIF9Oyi9L-326" vertex="1">
          <mxGeometry x="40" y="110" width="120" height="60" as="geometry" />
        </mxCell>
        <mxCell id="Z1oygH8IsLdkIF9Oyi9L-336" value="No" style="edgeStyle=orthogonalEdgeStyle;rounded=0;orthogonalLoop=1;jettySize=auto;html=1;" parent="Z1oygH8IsLdkIF9Oyi9L-326" source="Z1oygH8IsLdkIF9Oyi9L-337" edge="1">
          <mxGeometry relative="1" as="geometry">
            <mxPoint x="340" y="120" as="targetPoint" />
          </mxGeometry>
        </mxCell>
        <mxCell id="Z1oygH8IsLdkIF9Oyi9L-338" value="Security Events, User or Third Party Notification received" style="rounded=1;whiteSpace=wrap;html=1;fillColor=#f8cecc;strokeColor=#b85450;" parent="Z1oygH8IsLdkIF9Oyi9L-326" vertex="1">
          <mxGeometry x="40" y="20" width="120" height="60" as="geometry" />
        </mxCell>
        <mxCell id="Z1oygH8IsLdkIF9Oyi9L-339" value="" style="edgeStyle=orthogonalEdgeStyle;rounded=0;orthogonalLoop=1;jettySize=auto;html=1;" parent="Z1oygH8IsLdkIF9Oyi9L-326" source="Z1oygH8IsLdkIF9Oyi9L-340" target="Z1oygH8IsLdkIF9Oyi9L-335" edge="1">
          <mxGeometry relative="1" as="geometry" />
        </mxCell>
        <mxCell id="Z1oygH8IsLdkIF9Oyi9L-341" value="Yes" style="edgeStyle=orthogonalEdgeStyle;rounded=0;orthogonalLoop=1;jettySize=auto;html=1;" parent="Z1oygH8IsLdkIF9Oyi9L-326" source="Z1oygH8IsLdkIF9Oyi9L-343" target="Z1oygH8IsLdkIF9Oyi9L-333" edge="1">
          <mxGeometry relative="1" as="geometry" />
        </mxCell>
        <mxCell id="Z1oygH8IsLdkIF9Oyi9L-342" value="No" style="edgeStyle=orthogonalEdgeStyle;rounded=0;orthogonalLoop=1;jettySize=auto;html=1;entryX=0;entryY=0.5;entryDx=0;entryDy=0;exitX=1;exitY=0.5;exitDx=0;exitDy=0;" parent="Z1oygH8IsLdkIF9Oyi9L-326" source="Z1oygH8IsLdkIF9Oyi9L-343" target="Z1oygH8IsLdkIF9Oyi9L-345" edge="1">
          <mxGeometry relative="1" as="geometry">
            <Array as="points">
              <mxPoint x="720" y="210" />
              <mxPoint x="720" y="210" />
            </Array>
          </mxGeometry>
        </mxCell>
        <mxCell id="B6vYDSZyCx0211ZV-uHV-10" style="edgeStyle=orthogonalEdgeStyle;rounded=0;orthogonalLoop=1;jettySize=auto;html=1;entryX=0.5;entryY=0;entryDx=0;entryDy=0;" edge="1" parent="Z1oygH8IsLdkIF9Oyi9L-326" source="Z1oygH8IsLdkIF9Oyi9L-345">
          <mxGeometry relative="1" as="geometry">
            <mxPoint x="400" y="89.99999999999989" as="targetPoint" />
            <Array as="points">
              <mxPoint x="810" y="40" />
              <mxPoint x="400" y="40" />
            </Array>
          </mxGeometry>
        </mxCell>
        <mxCell id="B6vYDSZyCx0211ZV-uHV-11" value="Low" style="edgeLabel;html=1;align=center;verticalAlign=middle;resizable=0;points=[];" vertex="1" connectable="0" parent="B6vYDSZyCx0211ZV-uHV-10">
          <mxGeometry x="0.0582" y="1" relative="1" as="geometry">
            <mxPoint as="offset" />
          </mxGeometry>
        </mxCell>
        <mxCell id="Z1oygH8IsLdkIF9Oyi9L-335" value="Further analysis and collection" style="rounded=0;whiteSpace=wrap;html=1;" parent="Z1oygH8IsLdkIF9Oyi9L-326" vertex="1">
          <mxGeometry x="340" y="180" width="120" height="60" as="geometry" />
        </mxCell>
        <mxCell id="Z1oygH8IsLdkIF9Oyi9L-340" value="Create ticket / Log in incident management system." style="rounded=0;whiteSpace=wrap;html=1;" parent="Z1oygH8IsLdkIF9Oyi9L-326" vertex="1">
          <mxGeometry x="190" y="180" width="120" height="60" as="geometry" />
        </mxCell>
        <mxCell id="Z1oygH8IsLdkIF9Oyi9L-345" value="Assign Severity Level" style="rounded=0;whiteSpace=wrap;html=1;" parent="Z1oygH8IsLdkIF9Oyi9L-326" vertex="1">
          <mxGeometry x="740" y="180" width="120" height="60" as="geometry" />
        </mxCell>
        <mxCell id="Z1oygH8IsLdkIF9Oyi9L-343" value="Escalation required?" style="rhombus;whiteSpace=wrap;html=1;" parent="Z1oygH8IsLdkIF9Oyi9L-326" vertex="1">
          <mxGeometry x="620" y="170" width="80" height="80" as="geometry" />
        </mxCell>
        <mxCell id="Z1oygH8IsLdkIF9Oyi9L-334" value="Determine scope of incident" style="rounded=0;whiteSpace=wrap;html=1;" parent="Z1oygH8IsLdkIF9Oyi9L-326" vertex="1">
          <mxGeometry x="480" y="180" width="120" height="60" as="geometry" />
        </mxCell>
        <mxCell id="B6vYDSZyCx0211ZV-uHV-16" value="Contact acquiring bank / card brand / other external body as required" style="rounded=0;whiteSpace=wrap;html=1;" vertex="1" parent="Z1oygH8IsLdkIF9Oyi9L-326">
          <mxGeometry x="340" y="280" width="120" height="60" as="geometry" />
        </mxCell>
        <mxCell id="Z1oygH8IsLdkIF9Oyi9L-346" value="Notify SIRT team members and form task force" style="rounded=0;whiteSpace=wrap;html=1;" parent="Z1oygH8IsLdkIF9Oyi9L-326" vertex="1">
          <mxGeometry x="740" y="280" width="120" height="60" as="geometry" />
        </mxCell>
        <mxCell id="B6vYDSZyCx0211ZV-uHV-17" value="Notification to impacted persons / data subjects if required" style="whiteSpace=wrap;html=1;rounded=0;" vertex="1" parent="Z1oygH8IsLdkIF9Oyi9L-326">
          <mxGeometry x="190" y="280" width="120" height="60" as="geometry" />
        </mxCell>
        <mxCell id="B6vYDSZyCx0211ZV-uHV-22" style="edgeStyle=orthogonalEdgeStyle;rounded=0;orthogonalLoop=1;jettySize=auto;html=1;entryX=1;entryY=0.5;entryDx=0;entryDy=0;" edge="1" parent="Z1oygH8IsLdkIF9Oyi9L-326" source="B6vYDSZyCx0211ZV-uHV-16" target="B6vYDSZyCx0211ZV-uHV-17">
          <mxGeometry relative="1" as="geometry" />
        </mxCell>
        <mxCell id="B6vYDSZyCx0211ZV-uHV-20" value="Yes" style="edgeStyle=orthogonalEdgeStyle;rounded=0;orthogonalLoop=1;jettySize=auto;html=1;entryX=1;entryY=0.5;entryDx=0;entryDy=0;" edge="1" parent="Z1oygH8IsLdkIF9Oyi9L-326" source="B6vYDSZyCx0211ZV-uHV-13" target="B6vYDSZyCx0211ZV-uHV-15">
          <mxGeometry relative="1" as="geometry" />
        </mxCell>
        <mxCell id="B6vYDSZyCx0211ZV-uHV-13" value="&lt;font style=&quot;font-size: 10px&quot;&gt;Is PCI/PII or &lt;br&gt;Client data&lt;br&gt;lost&lt;/font&gt;" style="rhombus;whiteSpace=wrap;html=1;" vertex="1" parent="Z1oygH8IsLdkIF9Oyi9L-326">
          <mxGeometry x="625" y="270" width="90" height="80" as="geometry" />
        </mxCell>
        <mxCell id="Z1oygH8IsLdkIF9Oyi9L-348" value="Medium to&lt;br&gt;Critical" style="edgeStyle=orthogonalEdgeStyle;rounded=0;orthogonalLoop=1;jettySize=auto;html=1;" parent="Z1oygH8IsLdkIF9Oyi9L-326" source="Z1oygH8IsLdkIF9Oyi9L-345" target="Z1oygH8IsLdkIF9Oyi9L-346" edge="1">
          <mxGeometry relative="1" as="geometry" />
        </mxCell>
        <mxCell id="B6vYDSZyCx0211ZV-uHV-15" value="Consult with DPO, Legal Counsel and Executive Management" style="rounded=0;whiteSpace=wrap;html=1;" vertex="1" parent="Z1oygH8IsLdkIF9Oyi9L-326">
          <mxGeometry x="480" y="280" width="120" height="60" as="geometry" />
        </mxCell>
        <mxCell id="B6vYDSZyCx0211ZV-uHV-21" style="edgeStyle=orthogonalEdgeStyle;rounded=0;orthogonalLoop=1;jettySize=auto;html=1;entryX=1;entryY=0.5;entryDx=0;entryDy=0;" edge="1" parent="Z1oygH8IsLdkIF9Oyi9L-326" source="B6vYDSZyCx0211ZV-uHV-15" target="B6vYDSZyCx0211ZV-uHV-16">
          <mxGeometry relative="1" as="geometry">
            <mxPoint x="450" y="320" as="targetPoint" />
          </mxGeometry>
        </mxCell>
        <mxCell id="B6vYDSZyCx0211ZV-uHV-14" style="edgeStyle=orthogonalEdgeStyle;rounded=0;orthogonalLoop=1;jettySize=auto;html=1;entryX=1;entryY=0.5;entryDx=0;entryDy=0;" edge="1" parent="Z1oygH8IsLdkIF9Oyi9L-326" source="Z1oygH8IsLdkIF9Oyi9L-346" target="B6vYDSZyCx0211ZV-uHV-13">
          <mxGeometry relative="1" as="geometry">
            <mxPoint x="710" y="320" as="targetPoint" />
          </mxGeometry>
        </mxCell>
        <mxCell id="Z1oygH8IsLdkIF9Oyi9L-173" value="Containment" style="swimlane;html=1;startSize=20;horizontal=0;fillColor=#ffcccc;" parent="Z1oygH8IsLdkIF9Oyi9L-149" vertex="1">
          <mxGeometry x="20" y="630" width="900" height="520" as="geometry" />
        </mxCell>
        <mxCell id="Z1oygH8IsLdkIF9Oyi9L-174" value="" style="edgeStyle=orthogonalEdgeStyle;rounded=0;orthogonalLoop=1;jettySize=auto;html=1;" parent="Z1oygH8IsLdkIF9Oyi9L-173" source="Z1oygH8IsLdkIF9Oyi9L-177" edge="1">
          <mxGeometry relative="1" as="geometry">
            <mxPoint x="180" y="50" as="targetPoint" />
          </mxGeometry>
        </mxCell>
        <mxCell id="Z1oygH8IsLdkIF9Oyi9L-175" value="" style="edgeStyle=orthogonalEdgeStyle;rounded=0;orthogonalLoop=1;jettySize=auto;html=1;" parent="Z1oygH8IsLdkIF9Oyi9L-173" source="Z1oygH8IsLdkIF9Oyi9L-176" target="Z1oygH8IsLdkIF9Oyi9L-185" edge="1">
          <mxGeometry relative="1" as="geometry" />
        </mxCell>
        <mxCell id="Z1oygH8IsLdkIF9Oyi9L-178" value="No" style="edgeStyle=orthogonalEdgeStyle;rounded=0;orthogonalLoop=1;jettySize=auto;html=1;entryX=0;entryY=0.5;entryDx=0;entryDy=0;exitX=0.5;exitY=1;exitDx=0;exitDy=0;" parent="Z1oygH8IsLdkIF9Oyi9L-173" source="Z1oygH8IsLdkIF9Oyi9L-180" target="Z1oygH8IsLdkIF9Oyi9L-185" edge="1">
          <mxGeometry relative="1" as="geometry" />
        </mxCell>
        <mxCell id="Z1oygH8IsLdkIF9Oyi9L-179" value="Yes" style="edgeStyle=orthogonalEdgeStyle;rounded=0;orthogonalLoop=1;jettySize=auto;html=1;" parent="Z1oygH8IsLdkIF9Oyi9L-173" source="Z1oygH8IsLdkIF9Oyi9L-180" target="Z1oygH8IsLdkIF9Oyi9L-176" edge="1">
          <mxGeometry relative="1" as="geometry" />
        </mxCell>
        <mxCell id="Z1oygH8IsLdkIF9Oyi9L-181" value="Yes" style="edgeStyle=orthogonalEdgeStyle;rounded=0;orthogonalLoop=1;jettySize=auto;html=1;" parent="Z1oygH8IsLdkIF9Oyi9L-173" source="Z1oygH8IsLdkIF9Oyi9L-185" target="Z1oygH8IsLdkIF9Oyi9L-187" edge="1">
          <mxGeometry relative="1" as="geometry" />
        </mxCell>
        <mxCell id="Z1oygH8IsLdkIF9Oyi9L-182" value="" style="edgeStyle=orthogonalEdgeStyle;rounded=0;orthogonalLoop=1;jettySize=auto;html=1;" parent="Z1oygH8IsLdkIF9Oyi9L-173" source="Z1oygH8IsLdkIF9Oyi9L-183" target="Z1oygH8IsLdkIF9Oyi9L-190" edge="1">
          <mxGeometry relative="1" as="geometry" />
        </mxCell>
        <mxCell id="Z1oygH8IsLdkIF9Oyi9L-184" value="No" style="edgeStyle=orthogonalEdgeStyle;rounded=0;orthogonalLoop=1;jettySize=auto;html=1;" parent="Z1oygH8IsLdkIF9Oyi9L-173" source="Z1oygH8IsLdkIF9Oyi9L-185" target="Z1oygH8IsLdkIF9Oyi9L-183" edge="1">
          <mxGeometry relative="1" as="geometry" />
        </mxCell>
        <mxCell id="Z1oygH8IsLdkIF9Oyi9L-186" value="" style="edgeStyle=orthogonalEdgeStyle;rounded=0;orthogonalLoop=1;jettySize=auto;html=1;" parent="Z1oygH8IsLdkIF9Oyi9L-173" source="Z1oygH8IsLdkIF9Oyi9L-187" target="Z1oygH8IsLdkIF9Oyi9L-190" edge="1">
          <mxGeometry relative="1" as="geometry" />
        </mxCell>
        <mxCell id="Z1oygH8IsLdkIF9Oyi9L-180" value="External Support Required?" style="rhombus;whiteSpace=wrap;html=1;" parent="Z1oygH8IsLdkIF9Oyi9L-173" vertex="1">
          <mxGeometry x="180" y="10" width="90" height="80" as="geometry" />
        </mxCell>
        <mxCell id="Z1oygH8IsLdkIF9Oyi9L-176" value="Engage with third party support" style="rounded=0;whiteSpace=wrap;html=1;" parent="Z1oygH8IsLdkIF9Oyi9L-173" vertex="1">
          <mxGeometry x="315" y="20" width="120" height="60" as="geometry" />
        </mxCell>
        <mxCell id="Z1oygH8IsLdkIF9Oyi9L-183" value="Isolate assets from network" style="rounded=0;whiteSpace=wrap;html=1;" parent="Z1oygH8IsLdkIF9Oyi9L-173" vertex="1">
          <mxGeometry x="460" y="110" width="120" height="60" as="geometry" />
        </mxCell>
        <mxCell id="Z1oygH8IsLdkIF9Oyi9L-185" value="Are Assets Critical?" style="rhombus;whiteSpace=wrap;html=1;" parent="Z1oygH8IsLdkIF9Oyi9L-173" vertex="1">
          <mxGeometry x="330" y="100" width="90" height="80" as="geometry" />
        </mxCell>
        <mxCell id="Z1oygH8IsLdkIF9Oyi9L-188" value="No" style="edgeStyle=orthogonalEdgeStyle;rounded=0;orthogonalLoop=1;jettySize=auto;html=1;" parent="Z1oygH8IsLdkIF9Oyi9L-173" source="Z1oygH8IsLdkIF9Oyi9L-190" target="Z1oygH8IsLdkIF9Oyi9L-198" edge="1">
          <mxGeometry relative="1" as="geometry" />
        </mxCell>
        <mxCell id="Z1oygH8IsLdkIF9Oyi9L-189" value="Yes" style="edgeStyle=orthogonalEdgeStyle;rounded=0;orthogonalLoop=1;jettySize=auto;html=1;" parent="Z1oygH8IsLdkIF9Oyi9L-173" source="Z1oygH8IsLdkIF9Oyi9L-190" target="Z1oygH8IsLdkIF9Oyi9L-192" edge="1">
          <mxGeometry relative="1" as="geometry" />
        </mxCell>
        <mxCell id="B6vYDSZyCx0211ZV-uHV-29" style="edgeStyle=orthogonalEdgeStyle;rounded=0;orthogonalLoop=1;jettySize=auto;html=1;entryX=1.007;entryY=0.633;entryDx=0;entryDy=0;entryPerimeter=0;" edge="1" parent="Z1oygH8IsLdkIF9Oyi9L-173" source="Z1oygH8IsLdkIF9Oyi9L-192" target="Z1oygH8IsLdkIF9Oyi9L-198">
          <mxGeometry relative="1" as="geometry">
            <Array as="points">
              <mxPoint x="660" y="358" />
            </Array>
          </mxGeometry>
        </mxCell>
        <mxCell id="Z1oygH8IsLdkIF9Oyi9L-192" value="Perform forensic imaging" style="rounded=0;whiteSpace=wrap;html=1;" parent="Z1oygH8IsLdkIF9Oyi9L-173" vertex="1">
          <mxGeometry x="600" y="210" width="120" height="60" as="geometry" />
        </mxCell>
        <mxCell id="Z1oygH8IsLdkIF9Oyi9L-190" value="Forensic image required?" style="rhombus;whiteSpace=wrap;html=1;" parent="Z1oygH8IsLdkIF9Oyi9L-173" vertex="1">
          <mxGeometry x="480" y="200" width="80" height="80" as="geometry" />
        </mxCell>
        <mxCell id="Z1oygH8IsLdkIF9Oyi9L-187" value="Perform live containment or failover" style="rounded=0;whiteSpace=wrap;html=1;" parent="Z1oygH8IsLdkIF9Oyi9L-173" vertex="1">
          <mxGeometry x="315" y="210" width="120" height="60" as="geometry" />
        </mxCell>
        <mxCell id="B6vYDSZyCx0211ZV-uHV-31" value="Yes" style="edgeStyle=orthogonalEdgeStyle;rounded=0;orthogonalLoop=1;jettySize=auto;html=1;" edge="1" parent="Z1oygH8IsLdkIF9Oyi9L-173" source="Z1oygH8IsLdkIF9Oyi9L-197" target="Z1oygH8IsLdkIF9Oyi9L-200">
          <mxGeometry relative="1" as="geometry" />
        </mxCell>
        <mxCell id="B6vYDSZyCx0211ZV-uHV-34" style="edgeStyle=orthogonalEdgeStyle;rounded=0;orthogonalLoop=1;jettySize=auto;html=1;entryX=0.5;entryY=0;entryDx=0;entryDy=0;" edge="1" parent="Z1oygH8IsLdkIF9Oyi9L-173" source="Z1oygH8IsLdkIF9Oyi9L-200" target="Z1oygH8IsLdkIF9Oyi9L-204">
          <mxGeometry relative="1" as="geometry" />
        </mxCell>
        <mxCell id="Z1oygH8IsLdkIF9Oyi9L-200" value="Contact escalation point" style="rounded=0;whiteSpace=wrap;html=1;" parent="Z1oygH8IsLdkIF9Oyi9L-173" vertex="1">
          <mxGeometry x="170" y="320" width="120" height="60" as="geometry" />
        </mxCell>
        <mxCell id="B6vYDSZyCx0211ZV-uHV-32" style="edgeStyle=orthogonalEdgeStyle;rounded=0;orthogonalLoop=1;jettySize=auto;html=1;entryX=1;entryY=0.5;entryDx=0;entryDy=0;" edge="1" parent="Z1oygH8IsLdkIF9Oyi9L-173" source="Z1oygH8IsLdkIF9Oyi9L-197" target="Z1oygH8IsLdkIF9Oyi9L-204">
          <mxGeometry relative="1" as="geometry">
            <Array as="points">
              <mxPoint x="375" y="450" />
            </Array>
          </mxGeometry>
        </mxCell>
        <mxCell id="B6vYDSZyCx0211ZV-uHV-33" value="No" style="edgeLabel;html=1;align=center;verticalAlign=middle;resizable=0;points=[];" vertex="1" connectable="0" parent="B6vYDSZyCx0211ZV-uHV-32">
          <mxGeometry x="-0.1724" y="-14" relative="1" as="geometry">
            <mxPoint x="-14" y="15" as="offset" />
          </mxGeometry>
        </mxCell>
        <mxCell id="Z1oygH8IsLdkIF9Oyi9L-197" value="Escalation required?" style="rhombus;whiteSpace=wrap;html=1;" parent="Z1oygH8IsLdkIF9Oyi9L-173" vertex="1">
          <mxGeometry x="335" y="310" width="80" height="80" as="geometry" />
        </mxCell>
        <mxCell id="Z1oygH8IsLdkIF9Oyi9L-198" value="Begin long term containment" style="rounded=0;whiteSpace=wrap;html=1;" parent="Z1oygH8IsLdkIF9Oyi9L-173" vertex="1">
          <mxGeometry x="460" y="320" width="120" height="60" as="geometry" />
        </mxCell>
        <mxCell id="Z1oygH8IsLdkIF9Oyi9L-177" value="Investigate short term containment&amp;nbsp;" style="rounded=0;whiteSpace=wrap;html=1;" parent="Z1oygH8IsLdkIF9Oyi9L-173" vertex="1">
          <mxGeometry x="40" y="20" width="120" height="60" as="geometry" />
        </mxCell>
        <mxCell id="Z1oygH8IsLdkIF9Oyi9L-201" value="Yes" style="edgeStyle=orthogonalEdgeStyle;rounded=0;orthogonalLoop=1;jettySize=auto;html=1;entryX=0.5;entryY=1;entryDx=0;entryDy=0;" parent="Z1oygH8IsLdkIF9Oyi9L-173" source="Z1oygH8IsLdkIF9Oyi9L-202" target="Z1oygH8IsLdkIF9Oyi9L-177" edge="1">
          <mxGeometry relative="1" as="geometry" />
        </mxCell>
        <mxCell id="Z1oygH8IsLdkIF9Oyi9L-204" value="Search for additional compromised hosts" style="rounded=0;whiteSpace=wrap;html=1;" parent="Z1oygH8IsLdkIF9Oyi9L-173" vertex="1">
          <mxGeometry x="170" y="420" width="120" height="60" as="geometry" />
        </mxCell>
        <mxCell id="Z1oygH8IsLdkIF9Oyi9L-202" value="Additional hosts identified?" style="rhombus;whiteSpace=wrap;html=1;" parent="Z1oygH8IsLdkIF9Oyi9L-173" vertex="1">
          <mxGeometry x="60" y="410" width="80" height="80" as="geometry" />
        </mxCell>
        <mxCell id="Z1oygH8IsLdkIF9Oyi9L-203" value="" style="edgeStyle=orthogonalEdgeStyle;rounded=0;orthogonalLoop=1;jettySize=auto;html=1;" parent="Z1oygH8IsLdkIF9Oyi9L-173" source="Z1oygH8IsLdkIF9Oyi9L-204" target="Z1oygH8IsLdkIF9Oyi9L-202" edge="1">
          <mxGeometry relative="1" as="geometry" />
        </mxCell>
        <mxCell id="B6vYDSZyCx0211ZV-uHV-30" style="edgeStyle=orthogonalEdgeStyle;rounded=0;orthogonalLoop=1;jettySize=auto;html=1;entryX=1;entryY=0.5;entryDx=0;entryDy=0;" edge="1" parent="Z1oygH8IsLdkIF9Oyi9L-173" source="Z1oygH8IsLdkIF9Oyi9L-198" target="Z1oygH8IsLdkIF9Oyi9L-197">
          <mxGeometry relative="1" as="geometry">
            <mxPoint x="420" y="350" as="targetPoint" />
          </mxGeometry>
        </mxCell>
        <mxCell id="Z1oygH8IsLdkIF9Oyi9L-223" value="Review" style="swimlane;html=1;startSize=20;horizontal=0;fillColor=#ffe6cc;" parent="Z1oygH8IsLdkIF9Oyi9L-149" vertex="1">
          <mxGeometry x="20" y="1150" width="900" height="110" as="geometry" />
        </mxCell>
        <mxCell id="Z1oygH8IsLdkIF9Oyi9L-224" value="" style="edgeStyle=orthogonalEdgeStyle;rounded=0;orthogonalLoop=1;jettySize=auto;html=1;" parent="Z1oygH8IsLdkIF9Oyi9L-223" source="Z1oygH8IsLdkIF9Oyi9L-225" target="Z1oygH8IsLdkIF9Oyi9L-227" edge="1">
          <mxGeometry relative="1" as="geometry" />
        </mxCell>
        <mxCell id="Z1oygH8IsLdkIF9Oyi9L-227" value="Recommendations for improvement to processes and systems are made" style="rounded=0;whiteSpace=wrap;html=1;" parent="Z1oygH8IsLdkIF9Oyi9L-223" vertex="1">
          <mxGeometry x="250" y="29" width="120" height="60" as="geometry" />
        </mxCell>
        <mxCell id="Z1oygH8IsLdkIF9Oyi9L-228" value="Recommendations are assigned and implemented.&amp;nbsp;" style="rounded=0;whiteSpace=wrap;html=1;" parent="Z1oygH8IsLdkIF9Oyi9L-223" vertex="1">
          <mxGeometry x="460" y="29" width="120" height="60" as="geometry" />
        </mxCell>
        <mxCell id="Z1oygH8IsLdkIF9Oyi9L-353" value="Recommendations are assigned and implemented.&amp;nbsp;" style="rounded=0;whiteSpace=wrap;html=1;" parent="Z1oygH8IsLdkIF9Oyi9L-223" vertex="1">
          <mxGeometry x="670" y="29" width="120" height="60" as="geometry" />
        </mxCell>
        <mxCell id="Z1oygH8IsLdkIF9Oyi9L-225" value="Lessons learned meeting held with SIRT, Task Force and other stakeholders" style="rounded=0;whiteSpace=wrap;html=1;" parent="Z1oygH8IsLdkIF9Oyi9L-223" vertex="1">
          <mxGeometry x="40" y="29" width="120" height="60" as="geometry" />
        </mxCell>
        <mxCell id="Z1oygH8IsLdkIF9Oyi9L-226" value="" style="edgeStyle=orthogonalEdgeStyle;rounded=0;orthogonalLoop=1;jettySize=auto;html=1;" parent="Z1oygH8IsLdkIF9Oyi9L-223" source="Z1oygH8IsLdkIF9Oyi9L-227" target="Z1oygH8IsLdkIF9Oyi9L-228" edge="1">
          <mxGeometry relative="1" as="geometry" />
        </mxCell>
        <mxCell id="Z1oygH8IsLdkIF9Oyi9L-354" value="" style="edgeStyle=orthogonalEdgeStyle;rounded=0;orthogonalLoop=1;jettySize=auto;html=1;" parent="Z1oygH8IsLdkIF9Oyi9L-223" source="Z1oygH8IsLdkIF9Oyi9L-228" target="Z1oygH8IsLdkIF9Oyi9L-353" edge="1">
          <mxGeometry relative="1" as="geometry" />
        </mxCell>
        <mxCell id="Z1oygH8IsLdkIF9Oyi9L-211" value="Recovery" style="swimlane;html=1;startSize=20;horizontal=0;fillColor=#fff2cc;" parent="Z1oygH8IsLdkIF9Oyi9L-149" vertex="1">
          <mxGeometry x="20" y="1260" width="900" height="120" as="geometry" />
        </mxCell>
        <mxCell id="Z1oygH8IsLdkIF9Oyi9L-214" style="edgeStyle=orthogonalEdgeStyle;rounded=0;orthogonalLoop=1;jettySize=auto;html=1;entryX=0.5;entryY=1;entryDx=0;entryDy=0;exitX=0.5;exitY=1;exitDx=0;exitDy=0;" parent="Z1oygH8IsLdkIF9Oyi9L-211" source="Z1oygH8IsLdkIF9Oyi9L-220" target="Z1oygH8IsLdkIF9Oyi9L-221" edge="1">
          <mxGeometry relative="1" as="geometry" />
        </mxCell>
        <mxCell id="Z1oygH8IsLdkIF9Oyi9L-215" value="Testing failed" style="edgeLabel;html=1;align=center;verticalAlign=middle;resizable=0;points=[];" parent="Z1oygH8IsLdkIF9Oyi9L-214" vertex="1" connectable="0">
          <mxGeometry x="0.086" y="-2" relative="1" as="geometry">
            <mxPoint x="1" as="offset" />
          </mxGeometry>
        </mxCell>
        <mxCell id="Z1oygH8IsLdkIF9Oyi9L-212" value="" style="edgeStyle=orthogonalEdgeStyle;rounded=0;orthogonalLoop=1;jettySize=auto;html=1;" parent="Z1oygH8IsLdkIF9Oyi9L-211" source="Z1oygH8IsLdkIF9Oyi9L-222" target="Z1oygH8IsLdkIF9Oyi9L-221" edge="1">
          <mxGeometry relative="1" as="geometry" />
        </mxCell>
        <mxCell id="Z1oygH8IsLdkIF9Oyi9L-213" value="" style="edgeStyle=orthogonalEdgeStyle;rounded=0;orthogonalLoop=1;jettySize=auto;html=1;" parent="Z1oygH8IsLdkIF9Oyi9L-211" source="Z1oygH8IsLdkIF9Oyi9L-221" target="Z1oygH8IsLdkIF9Oyi9L-220" edge="1">
          <mxGeometry relative="1" as="geometry" />
        </mxCell>
        <mxCell id="Z1oygH8IsLdkIF9Oyi9L-216" value="" style="edgeStyle=orthogonalEdgeStyle;rounded=0;orthogonalLoop=1;jettySize=auto;html=1;" parent="Z1oygH8IsLdkIF9Oyi9L-211" source="Z1oygH8IsLdkIF9Oyi9L-220" target="Z1oygH8IsLdkIF9Oyi9L-219" edge="1">
          <mxGeometry relative="1" as="geometry" />
        </mxCell>
        <mxCell id="Z1oygH8IsLdkIF9Oyi9L-217" value="" style="edgeStyle=orthogonalEdgeStyle;rounded=0;orthogonalLoop=1;jettySize=auto;html=1;" parent="Z1oygH8IsLdkIF9Oyi9L-211" source="Z1oygH8IsLdkIF9Oyi9L-219" target="Z1oygH8IsLdkIF9Oyi9L-218" edge="1">
          <mxGeometry relative="1" as="geometry" />
        </mxCell>
        <mxCell id="Z1oygH8IsLdkIF9Oyi9L-219" value="Determine and establishing monitoring requirements" style="rounded=0;whiteSpace=wrap;html=1;" parent="Z1oygH8IsLdkIF9Oyi9L-211" vertex="1">
          <mxGeometry x="510" y="20" width="120" height="60" as="geometry" />
        </mxCell>
        <mxCell id="Z1oygH8IsLdkIF9Oyi9L-220" value="Pre-deployment testing" style="rounded=0;whiteSpace=wrap;html=1;" parent="Z1oygH8IsLdkIF9Oyi9L-211" vertex="1">
          <mxGeometry x="350" y="20" width="120" height="60" as="geometry" />
        </mxCell>
        <mxCell id="Z1oygH8IsLdkIF9Oyi9L-221" value="Apply remediation actions" style="rounded=0;whiteSpace=wrap;html=1;" parent="Z1oygH8IsLdkIF9Oyi9L-211" vertex="1">
          <mxGeometry x="190" y="20" width="120" height="60" as="geometry" />
        </mxCell>
        <mxCell id="Z1oygH8IsLdkIF9Oyi9L-222" value="Rebuild systems" style="rounded=0;whiteSpace=wrap;html=1;" parent="Z1oygH8IsLdkIF9Oyi9L-211" vertex="1">
          <mxGeometry x="40" y="20" width="120" height="60" as="geometry" />
        </mxCell>
        <mxCell id="Z1oygH8IsLdkIF9Oyi9L-218" value="Re-introduce asset(s) into production" style="rounded=0;whiteSpace=wrap;html=1;" parent="Z1oygH8IsLdkIF9Oyi9L-211" vertex="1">
          <mxGeometry x="670" y="20" width="120" height="60" as="geometry" />
        </mxCell>
        <mxCell id="Z1oygH8IsLdkIF9Oyi9L-205" value="Eradication" style="swimlane;html=1;startSize=20;horizontal=0;fillColor=#e1d5e7;" parent="Z1oygH8IsLdkIF9Oyi9L-149" vertex="1">
          <mxGeometry x="20" y="1380" width="900" height="110" as="geometry" />
        </mxCell>
        <mxCell id="Z1oygH8IsLdkIF9Oyi9L-206" value="" style="edgeStyle=orthogonalEdgeStyle;rounded=0;orthogonalLoop=1;jettySize=auto;html=1;" parent="Z1oygH8IsLdkIF9Oyi9L-205" source="Z1oygH8IsLdkIF9Oyi9L-207" target="Z1oygH8IsLdkIF9Oyi9L-209" edge="1">
          <mxGeometry relative="1" as="geometry" />
        </mxCell>
        <mxCell id="Z1oygH8IsLdkIF9Oyi9L-208" value="" style="edgeStyle=orthogonalEdgeStyle;rounded=0;orthogonalLoop=1;jettySize=auto;html=1;exitX=1;exitY=0.5;exitDx=0;exitDy=0;" parent="Z1oygH8IsLdkIF9Oyi9L-205" source="Z1oygH8IsLdkIF9Oyi9L-209" target="Z1oygH8IsLdkIF9Oyi9L-210" edge="1">
          <mxGeometry relative="1" as="geometry">
            <mxPoint x="600" y="40" as="sourcePoint" />
          </mxGeometry>
        </mxCell>
        <mxCell id="Z1oygH8IsLdkIF9Oyi9L-209" value="Determine remediation actions" style="rounded=0;whiteSpace=wrap;html=1;" parent="Z1oygH8IsLdkIF9Oyi9L-205" vertex="1">
          <mxGeometry x="350" y="20" width="120" height="60" as="geometry" />
        </mxCell>
        <mxCell id="Z1oygH8IsLdkIF9Oyi9L-207" value="Perform root cause analysis" style="rounded=0;whiteSpace=wrap;html=1;" parent="Z1oygH8IsLdkIF9Oyi9L-205" vertex="1">
          <mxGeometry x="40" y="20" width="120" height="60" as="geometry" />
        </mxCell>
        <mxCell id="Z1oygH8IsLdkIF9Oyi9L-210" value="Perform remediation actions" style="rounded=0;whiteSpace=wrap;html=1;" parent="Z1oygH8IsLdkIF9Oyi9L-205" vertex="1">
          <mxGeometry x="670" y="20" width="120" height="60" as="geometry" />
        </mxCell>
        <mxCell id="Z1oygH8IsLdkIF9Oyi9L-361" style="edgeStyle=orthogonalEdgeStyle;rounded=0;orthogonalLoop=1;jettySize=auto;html=1;entryX=1;entryY=0.5;entryDx=0;entryDy=0;exitX=1;exitY=0.5;exitDx=0;exitDy=0;" parent="Z1oygH8IsLdkIF9Oyi9L-149" source="Z1oygH8IsLdkIF9Oyi9L-210" edge="1">
          <mxGeometry relative="1" as="geometry">
            <mxPoint x="180" y="80" as="targetPoint" />
            <Array as="points">
              <mxPoint x="900" y="1430" />
              <mxPoint x="900" y="80" />
            </Array>
          </mxGeometry>
        </mxCell>
        <mxCell id="B6vYDSZyCx0211ZV-uHV-4" style="edgeStyle=orthogonalEdgeStyle;rounded=0;orthogonalLoop=1;jettySize=auto;html=1;entryX=0.5;entryY=0;entryDx=0;entryDy=0;" edge="1" parent="Z1oygH8IsLdkIF9Oyi9L-149" source="Z1oygH8IsLdkIF9Oyi9L-202" target="Z1oygH8IsLdkIF9Oyi9L-225">
          <mxGeometry relative="1" as="geometry" />
        </mxCell>
        <mxCell id="B6vYDSZyCx0211ZV-uHV-5" value="No" style="edgeLabel;html=1;align=center;verticalAlign=middle;resizable=0;points=[];" vertex="1" connectable="0" parent="B6vYDSZyCx0211ZV-uHV-4">
          <mxGeometry x="-0.2746" y="-1" relative="1" as="geometry">
            <mxPoint as="offset" />
          </mxGeometry>
        </mxCell>
        <mxCell id="B6vYDSZyCx0211ZV-uHV-7" style="edgeStyle=orthogonalEdgeStyle;rounded=0;orthogonalLoop=1;jettySize=auto;html=1;" edge="1" parent="Z1oygH8IsLdkIF9Oyi9L-149" source="Z1oygH8IsLdkIF9Oyi9L-218" target="Z1oygH8IsLdkIF9Oyi9L-207">
          <mxGeometry relative="1" as="geometry">
            <Array as="points">
              <mxPoint x="747" y="1370" />
              <mxPoint x="120" y="1370" />
            </Array>
          </mxGeometry>
        </mxCell>
        <mxCell id="B6vYDSZyCx0211ZV-uHV-23" style="edgeStyle=orthogonalEdgeStyle;rounded=0;orthogonalLoop=1;jettySize=auto;html=1;entryX=0.5;entryY=0;entryDx=0;entryDy=0;" edge="1" parent="Z1oygH8IsLdkIF9Oyi9L-149" source="B6vYDSZyCx0211ZV-uHV-17" target="Z1oygH8IsLdkIF9Oyi9L-177">
          <mxGeometry relative="1" as="geometry" />
        </mxCell>
        <mxCell id="B6vYDSZyCx0211ZV-uHV-24" style="edgeStyle=orthogonalEdgeStyle;rounded=0;orthogonalLoop=1;jettySize=auto;html=1;entryX=0.75;entryY=0;entryDx=0;entryDy=0;" edge="1" parent="Z1oygH8IsLdkIF9Oyi9L-149" source="B6vYDSZyCx0211ZV-uHV-13" target="Z1oygH8IsLdkIF9Oyi9L-177">
          <mxGeometry relative="1" as="geometry">
            <Array as="points">
              <mxPoint x="685" y="620" />
              <mxPoint x="150" y="620" />
            </Array>
          </mxGeometry>
        </mxCell>
        <mxCell id="B6vYDSZyCx0211ZV-uHV-25" value="No" style="edgeLabel;html=1;align=center;verticalAlign=middle;resizable=0;points=[];" vertex="1" connectable="0" parent="B6vYDSZyCx0211ZV-uHV-24">
          <mxGeometry x="-0.1274" y="1" relative="1" as="geometry">
            <mxPoint as="offset" />
          </mxGeometry>
        </mxCell>
        <mxCell id="B6vYDSZyCx0211ZV-uHV-26" style="edgeStyle=orthogonalEdgeStyle;rounded=0;orthogonalLoop=1;jettySize=auto;html=1;entryX=0.5;entryY=0;entryDx=0;entryDy=0;" edge="1" parent="Z1oygH8IsLdkIF9Oyi9L-149" source="Z1oygH8IsLdkIF9Oyi9L-353" target="Z1oygH8IsLdkIF9Oyi9L-222">
          <mxGeometry relative="1" as="geometry">
            <Array as="points">
              <mxPoint x="750" y="1250" />
              <mxPoint x="120" y="1250" />
            </Array>
          </mxGeometry>
        </mxCell>
      </root>
    </mxGraphModel>
  </diagram>
</mxfile>
